<?xml version="1.0" encoding="utf-8"?>
<!-- Generator: Adobe Illustrator 16.0.0, SVG Export Plug-In . SVG Version: 6.00 Build 0)  -->
<!DOCTYPE svg PUBLIC "-//W3C//DTD SVG 1.1//EN" "http://www.w3.org/Graphics/SVG/1.1/DTD/svg11.dtd">
<svg version="1.1" id="Layer_5" xmlns="http://www.w3.org/2000/svg" xmlns:xlink="http://www.w3.org/1999/xlink" x="0px" y="0px"
	 width="100px" height="100px" viewBox="0 0 100 100" enable-background="new 0 0 100 100" xml:space="preserve">
<path d="M68.917,30.319v-5.278H30.75v5.062c-3.982,2.556-6,6.68-6,12.271v26c0,10.451,7.234,15.75,21.5,15.75h7.5
	c14.266,0,21.5-5.299,21.5-15.75v-26C75.25,36.98,73.12,32.929,68.917,30.319z M72.25,68.375c0,8.58-6.051,12.75-18.5,12.75h-7.5
	c-12.449,0-18.5-4.17-18.5-12.75v-26c0-4.839,1.711-8.147,5.231-10.113l0.769-0.429v-3.792h32.167v4.028l0.78,0.427
	c3.736,2.044,5.553,5.275,5.553,9.878V68.375z M29.813,20.75v-2.875c0-1.104,0.896-2,2-2h36.375c1.104,0,2,0.896,2,2v2.875
	c0,1.104-0.896,2-2,2H31.813C30.708,22.75,29.813,21.854,29.813,20.75z M35.315,69.213c-3.09-5.45-0.987-13.998,5.406-20.392
	c7.261-7.26,17.3-8.99,22.425-3.866c0.006,0.006,0.012,0.014,0.02,0.021c-1.025,2.984-4.292,9.334-14.084,12.768
	C40.111,60.89,36.651,65.894,35.315,69.213z M64.588,46.82c3.229,5.441,1.152,14.099-5.309,20.559
	c-7.26,7.26-17.299,8.991-22.424,3.866c-0.034-0.035-0.064-0.072-0.1-0.107c0.746-2.662,3.42-8.155,12.988-11.51
	c4.715-1.654,8.043-3.955,10.385-6.297C62.459,51.001,63.811,48.633,64.588,46.82z"/>
</svg>
